<svg xmlns="http://www.w3.org/2000/svg" xmlns:xlink="http://www.w3.org/1999/xlink" width="2000" zoomAndPan="magnify" viewBox="0 0 1500 1499.999933" height="2000" preserveAspectRatio="xMidYMid meet" version="1.0"><defs><clipPath id="4ce2d693fb"><path d="M 338.089844 -141.671875 L 1161.902344 -141.671875 C 1169.753906 -141.671875 1177.601562 -141.480469 1185.441406 -141.09375 C 1193.285156 -140.707031 1201.113281 -140.128906 1208.925781 -139.359375 C 1216.742188 -138.589844 1224.53125 -137.628906 1232.296875 -136.476562 C 1240.0625 -135.328125 1247.796875 -133.984375 1255.5 -132.453125 C 1263.199219 -130.921875 1270.859375 -129.199219 1278.476562 -127.292969 C 1286.089844 -125.386719 1293.65625 -123.292969 1301.167969 -121.011719 C 1308.683594 -118.734375 1316.136719 -116.269531 1323.527344 -113.625 C 1330.921875 -110.980469 1338.246094 -108.15625 1345.5 -105.152344 C 1352.753906 -102.148438 1359.929688 -98.964844 1367.027344 -95.609375 C 1374.125 -92.25 1381.136719 -88.722656 1388.058594 -85.019531 C 1394.984375 -81.320312 1401.816406 -77.453125 1408.550781 -73.414062 C 1415.285156 -69.378906 1421.914062 -65.179688 1428.445312 -60.816406 C 1434.972656 -56.453125 1441.390625 -51.933594 1447.695312 -47.257812 C 1454.003906 -42.582031 1460.191406 -37.75 1466.261719 -32.769531 C 1472.328125 -27.789062 1478.273438 -22.660156 1484.089844 -17.390625 C 1489.910156 -12.117188 1495.59375 -6.703125 1501.144531 -1.152344 C 1506.699219 4.398438 1512.109375 10.085938 1517.382812 15.902344 C 1522.65625 21.71875 1527.78125 27.664062 1532.761719 33.734375 C 1537.746094 39.800781 1542.574219 45.992188 1547.25 52.296875 C 1551.929688 58.605469 1556.449219 65.019531 1560.808594 71.550781 C 1565.171875 78.078125 1569.371094 84.710938 1573.40625 91.445312 C 1577.445312 98.179688 1581.3125 105.007812 1585.015625 111.933594 C 1588.714844 118.859375 1592.246094 125.867188 1595.601562 132.964844 C 1598.960938 140.0625 1602.140625 147.238281 1605.144531 154.496094 C 1608.148438 161.75 1610.972656 169.070312 1613.621094 176.464844 C 1616.265625 183.855469 1618.726562 191.308594 1621.007812 198.824219 C 1623.285156 206.335938 1625.378906 213.902344 1627.285156 221.519531 C 1629.195312 229.136719 1630.914062 236.792969 1632.445312 244.496094 C 1633.976562 252.195312 1635.320312 259.929688 1636.472656 267.695312 C 1637.625 275.460938 1638.585938 283.253906 1639.355469 291.066406 C 1640.125 298.878906 1640.703125 306.707031 1641.085938 314.550781 C 1641.472656 322.394531 1641.664062 330.238281 1641.664062 338.089844 L 1641.664062 1161.902344 C 1641.664062 1169.753906 1641.472656 1177.601562 1641.085938 1185.441406 C 1640.703125 1193.285156 1640.125 1201.113281 1639.355469 1208.925781 C 1638.585938 1216.742188 1637.625 1224.53125 1636.472656 1232.296875 C 1635.320312 1240.0625 1633.976562 1247.796875 1632.445312 1255.5 C 1630.914062 1263.199219 1629.195312 1270.859375 1627.285156 1278.476562 C 1625.378906 1286.089844 1623.285156 1293.65625 1621.007812 1301.167969 C 1618.726562 1308.683594 1616.265625 1316.136719 1613.621094 1323.527344 C 1610.972656 1330.921875 1608.148438 1338.246094 1605.144531 1345.5 C 1602.140625 1352.753906 1598.960938 1359.929688 1595.601562 1367.027344 C 1592.246094 1374.125 1588.714844 1381.136719 1585.015625 1388.058594 C 1581.3125 1394.984375 1577.445312 1401.8125 1573.40625 1408.550781 C 1569.371094 1415.285156 1565.171875 1421.914062 1560.808594 1428.445312 C 1556.449219 1434.972656 1551.929688 1441.390625 1547.25 1447.695312 C 1542.574219 1454.003906 1537.746094 1460.191406 1532.761719 1466.261719 C 1527.78125 1472.328125 1522.65625 1478.273438 1517.382812 1484.089844 C 1512.109375 1489.910156 1506.699219 1495.59375 1501.144531 1501.144531 C 1495.59375 1506.695312 1489.910156 1512.109375 1484.089844 1517.382812 C 1478.273438 1522.65625 1472.328125 1527.78125 1466.261719 1532.761719 C 1460.191406 1537.746094 1454.003906 1542.574219 1447.695312 1547.25 C 1441.390625 1551.929688 1434.972656 1556.449219 1428.445312 1560.808594 C 1421.914062 1565.171875 1415.285156 1569.371094 1408.550781 1573.40625 C 1401.816406 1577.445312 1394.984375 1581.3125 1388.0625 1585.015625 C 1381.136719 1588.714844 1374.125 1592.246094 1367.027344 1595.601562 C 1359.929688 1598.960938 1352.753906 1602.140625 1345.5 1605.144531 C 1338.246094 1608.148438 1330.921875 1610.972656 1323.527344 1613.621094 C 1316.136719 1616.265625 1308.683594 1618.726562 1301.167969 1621.007812 C 1293.65625 1623.285156 1286.089844 1625.378906 1278.476562 1627.285156 C 1270.859375 1629.195312 1263.199219 1630.914062 1255.5 1632.445312 C 1247.796875 1633.976562 1240.066406 1635.320312 1232.296875 1636.472656 C 1224.53125 1637.625 1216.742188 1638.585938 1208.925781 1639.355469 C 1201.113281 1640.125 1193.285156 1640.703125 1185.441406 1641.085938 C 1177.601562 1641.472656 1169.753906 1641.664062 1161.902344 1641.664062 L 338.089844 1641.664062 C 330.238281 1641.664062 322.394531 1641.472656 314.550781 1641.085938 C 306.707031 1640.703125 298.878906 1640.125 291.066406 1639.355469 C 283.253906 1638.585938 275.460938 1637.625 267.695312 1636.472656 C 259.929688 1635.320312 252.195312 1633.976562 244.496094 1632.445312 C 236.792969 1630.914062 229.136719 1629.195312 221.519531 1627.285156 C 213.902344 1625.378906 206.335938 1623.285156 198.824219 1621.007812 C 191.308594 1618.726562 183.855469 1616.265625 176.464844 1613.621094 C 169.070312 1610.972656 161.75 1608.148438 154.496094 1605.144531 C 147.242188 1602.140625 140.0625 1598.960938 132.964844 1595.601562 C 125.867188 1592.246094 118.859375 1588.714844 111.933594 1585.015625 C 105.007812 1581.3125 98.179688 1577.445312 91.445312 1573.40625 C 84.710938 1569.371094 78.078125 1565.171875 71.550781 1560.808594 C 65.019531 1556.449219 58.605469 1551.929688 52.296875 1547.25 C 45.992188 1542.574219 39.804688 1537.746094 33.734375 1532.761719 C 27.664062 1527.78125 21.71875 1522.65625 15.902344 1517.382812 C 10.085938 1512.109375 4.398438 1506.695312 -1.152344 1501.144531 C -6.703125 1495.59375 -12.117188 1489.910156 -17.390625 1484.089844 C -22.660156 1478.273438 -27.789062 1472.328125 -32.769531 1466.261719 C -37.75 1460.191406 -42.582031 1454.003906 -47.257812 1447.695312 C -51.933594 1441.390625 -56.453125 1434.972656 -60.816406 1428.445312 C -65.179688 1421.914062 -69.378906 1415.285156 -73.414062 1408.550781 C -77.453125 1401.816406 -81.320312 1394.984375 -85.019531 1388.058594 C -88.722656 1381.136719 -92.25 1374.125 -95.609375 1367.027344 C -98.964844 1359.929688 -102.148438 1352.753906 -105.152344 1345.5 C -108.15625 1338.246094 -110.980469 1330.921875 -113.625 1323.527344 C -116.269531 1316.136719 -118.734375 1308.683594 -121.011719 1301.167969 C -123.292969 1293.65625 -125.386719 1286.089844 -127.292969 1278.476562 C -129.199219 1270.859375 -130.921875 1263.199219 -132.453125 1255.5 C -133.984375 1247.796875 -135.328125 1240.0625 -136.476562 1232.296875 C -137.628906 1224.53125 -138.589844 1216.742188 -139.359375 1208.925781 C -140.128906 1201.113281 -140.707031 1193.285156 -141.09375 1185.441406 C -141.476562 1177.601562 -141.671875 1169.753906 -141.671875 1161.902344 L -141.671875 338.089844 C -141.671875 330.238281 -141.476562 322.394531 -141.09375 314.550781 C -140.707031 306.707031 -140.128906 298.878906 -139.359375 291.066406 C -138.589844 283.253906 -137.628906 275.460938 -136.476562 267.695312 C -135.328125 259.929688 -133.984375 252.195312 -132.453125 244.496094 C -130.921875 236.792969 -129.199219 229.136719 -127.292969 221.519531 C -125.386719 213.902344 -123.292969 206.335938 -121.011719 198.824219 C -118.734375 191.308594 -116.269531 183.855469 -113.625 176.464844 C -110.980469 169.070312 -108.15625 161.75 -105.152344 154.496094 C -102.148438 147.238281 -98.964844 140.0625 -95.609375 132.964844 C -92.25 125.867188 -88.722656 118.859375 -85.019531 111.933594 C -81.320312 105.007812 -77.453125 98.179688 -73.414062 91.445312 C -69.378906 84.710938 -65.179688 78.078125 -60.816406 71.550781 C -56.453125 65.019531 -51.933594 58.605469 -47.257812 52.296875 C -42.582031 45.992188 -37.75 39.800781 -32.769531 33.734375 C -27.789062 27.664062 -22.660156 21.71875 -17.390625 15.902344 C -12.117188 10.085938 -6.703125 4.398438 -1.152344 -1.152344 C 4.398438 -6.703125 10.085938 -12.117188 15.902344 -17.390625 C 21.71875 -22.660156 27.664062 -27.789062 33.734375 -32.769531 C 39.804688 -37.75 45.992188 -42.582031 52.296875 -47.257812 C 58.605469 -51.933594 65.019531 -56.453125 71.550781 -60.816406 C 78.078125 -65.179688 84.710938 -69.378906 91.445312 -73.414062 C 98.179688 -77.453125 105.007812 -81.320312 111.933594 -85.019531 C 118.859375 -88.722656 125.867188 -92.25 132.964844 -95.609375 C 140.0625 -98.964844 147.242188 -102.148438 154.496094 -105.152344 C 161.75 -108.15625 169.070312 -110.980469 176.464844 -113.625 C 183.855469 -116.269531 191.308594 -118.734375 198.824219 -121.011719 C 206.335938 -123.292969 213.902344 -125.386719 221.519531 -127.292969 C 229.136719 -129.199219 236.792969 -130.921875 244.496094 -132.453125 C 252.195312 -133.984375 259.929688 -135.328125 267.695312 -136.476562 C 275.460938 -137.628906 283.253906 -138.589844 291.066406 -139.359375 C 298.878906 -140.128906 306.707031 -140.707031 314.550781 -141.09375 C 322.394531 -141.480469 330.238281 -141.671875 338.089844 -141.671875 Z M 338.089844 -141.671875 " clip-rule="nonzero"/></clipPath><linearGradient x1="36.707435" gradientTransform="matrix(0, -7.556508, 7.556508, 0, -141.671133, 1641.6647)" y1="5.7422" x2="199.293488" gradientUnits="userSpaceOnUse" y2="230.257373" id="e20492f20f"><stop stop-opacity="1" stop-color="rgb(48.774719%, 60.487366%, 91.519165%)" offset="0"/><stop stop-opacity="1" stop-color="rgb(48.74115%, 60.249329%, 91.403198%)" offset="0.00390625"/><stop stop-opacity="1" stop-color="rgb(48.707581%, 60.012817%, 91.287231%)" offset="0.0078125"/><stop stop-opacity="1" stop-color="rgb(48.674011%, 59.77478%, 91.171265%)" offset="0.0117188"/><stop stop-opacity="1" stop-color="rgb(48.640442%, 59.538269%, 91.055298%)" offset="0.015625"/><stop stop-opacity="1" stop-color="rgb(48.606873%, 59.300232%, 90.937805%)" offset="0.0195312"/><stop stop-opacity="1" stop-color="rgb(48.573303%, 59.063721%, 90.821838%)" offset="0.0234375"/><stop stop-opacity="1" stop-color="rgb(48.539734%, 58.825684%, 90.705872%)" offset="0.0273438"/><stop stop-opacity="1" stop-color="rgb(48.50769%, 58.589172%, 90.589905%)" offset="0.03125"/><stop stop-opacity="1" stop-color="rgb(48.474121%, 58.351135%, 90.472412%)" offset="0.0351562"/><stop stop-opacity="1" stop-color="rgb(48.440552%, 58.114624%, 90.356445%)" offset="0.0390625"/><stop stop-opacity="1" stop-color="rgb(48.406982%, 57.876587%, 90.240479%)" offset="0.0429688"/><stop stop-opacity="1" stop-color="rgb(48.373413%, 57.640076%, 90.124512%)" offset="0.046875"/><stop stop-opacity="1" stop-color="rgb(48.339844%, 57.402039%, 90.007019%)" offset="0.0507812"/><stop stop-opacity="1" stop-color="rgb(48.306274%, 57.165527%, 89.891052%)" offset="0.0546875"/><stop stop-opacity="1" stop-color="rgb(48.272705%, 56.92749%, 89.775085%)" offset="0.0585937"/><stop stop-opacity="1" stop-color="rgb(48.239136%, 56.690979%, 89.659119%)" offset="0.0625"/><stop stop-opacity="1" stop-color="rgb(48.205566%, 56.452942%, 89.541626%)" offset="0.0664062"/><stop stop-opacity="1" stop-color="rgb(48.171997%, 56.214905%, 89.425659%)" offset="0.0703125"/><stop stop-opacity="1" stop-color="rgb(48.138428%, 55.976868%, 89.309692%)" offset="0.0742187"/><stop stop-opacity="1" stop-color="rgb(48.104858%, 55.740356%, 89.193726%)" offset="0.078125"/><stop stop-opacity="1" stop-color="rgb(48.071289%, 55.502319%, 89.077759%)" offset="0.0820312"/><stop stop-opacity="1" stop-color="rgb(48.03772%, 55.265808%, 88.961792%)" offset="0.0859375"/><stop stop-opacity="1" stop-color="rgb(48.00415%, 55.027771%, 88.844299%)" offset="0.0898437"/><stop stop-opacity="1" stop-color="rgb(47.972107%, 54.79126%, 88.728333%)" offset="0.09375"/><stop stop-opacity="1" stop-color="rgb(47.938538%, 54.553223%, 88.612366%)" offset="0.0976562"/><stop stop-opacity="1" stop-color="rgb(47.904968%, 54.316711%, 88.496399%)" offset="0.101562"/><stop stop-opacity="1" stop-color="rgb(47.871399%, 54.078674%, 88.378906%)" offset="0.105469"/><stop stop-opacity="1" stop-color="rgb(47.83783%, 53.842163%, 88.262939%)" offset="0.109375"/><stop stop-opacity="1" stop-color="rgb(47.80426%, 53.604126%, 88.146973%)" offset="0.113281"/><stop stop-opacity="1" stop-color="rgb(47.770691%, 53.367615%, 88.031006%)" offset="0.117188"/><stop stop-opacity="1" stop-color="rgb(47.737122%, 53.129578%, 87.913513%)" offset="0.121094"/><stop stop-opacity="1" stop-color="rgb(47.703552%, 52.893066%, 87.797546%)" offset="0.125"/><stop stop-opacity="1" stop-color="rgb(47.669983%, 52.655029%, 87.68158%)" offset="0.128906"/><stop stop-opacity="1" stop-color="rgb(47.636414%, 52.418518%, 87.565613%)" offset="0.132812"/><stop stop-opacity="1" stop-color="rgb(47.602844%, 52.180481%, 87.44812%)" offset="0.136719"/><stop stop-opacity="1" stop-color="rgb(47.569275%, 51.942444%, 87.332153%)" offset="0.140625"/><stop stop-opacity="1" stop-color="rgb(47.535706%, 51.704407%, 87.216187%)" offset="0.144531"/><stop stop-opacity="1" stop-color="rgb(47.502136%, 51.467896%, 87.10022%)" offset="0.148438"/><stop stop-opacity="1" stop-color="rgb(47.468567%, 51.229858%, 86.984253%)" offset="0.152344"/><stop stop-opacity="1" stop-color="rgb(47.436523%, 50.993347%, 86.868286%)" offset="0.15625"/><stop stop-opacity="1" stop-color="rgb(47.402954%, 50.75531%, 86.750793%)" offset="0.160156"/><stop stop-opacity="1" stop-color="rgb(47.369385%, 50.518799%, 86.634827%)" offset="0.164062"/><stop stop-opacity="1" stop-color="rgb(47.335815%, 50.280762%, 86.51886%)" offset="0.167969"/><stop stop-opacity="1" stop-color="rgb(47.302246%, 50.04425%, 86.402893%)" offset="0.171875"/><stop stop-opacity="1" stop-color="rgb(47.268677%, 49.806213%, 86.2854%)" offset="0.175781"/><stop stop-opacity="1" stop-color="rgb(47.235107%, 49.569702%, 86.169434%)" offset="0.179688"/><stop stop-opacity="1" stop-color="rgb(47.201538%, 49.331665%, 86.053467%)" offset="0.183594"/><stop stop-opacity="1" stop-color="rgb(47.167969%, 49.095154%, 85.9375%)" offset="0.1875"/><stop stop-opacity="1" stop-color="rgb(47.134399%, 48.857117%, 85.820007%)" offset="0.191406"/><stop stop-opacity="1" stop-color="rgb(47.10083%, 48.620605%, 85.704041%)" offset="0.195312"/><stop stop-opacity="1" stop-color="rgb(47.067261%, 48.382568%, 85.588074%)" offset="0.199219"/><stop stop-opacity="1" stop-color="rgb(47.033691%, 48.146057%, 85.472107%)" offset="0.203125"/><stop stop-opacity="1" stop-color="rgb(47.000122%, 47.90802%, 85.354614%)" offset="0.207031"/><stop stop-opacity="1" stop-color="rgb(46.966553%, 47.669983%, 85.238647%)" offset="0.210938"/><stop stop-opacity="1" stop-color="rgb(46.932983%, 47.431946%, 85.122681%)" offset="0.214844"/><stop stop-opacity="1" stop-color="rgb(46.90094%, 47.195435%, 85.006714%)" offset="0.21875"/><stop stop-opacity="1" stop-color="rgb(46.867371%, 46.957397%, 84.890747%)" offset="0.222656"/><stop stop-opacity="1" stop-color="rgb(46.833801%, 46.720886%, 84.77478%)" offset="0.226562"/><stop stop-opacity="1" stop-color="rgb(46.800232%, 46.482849%, 84.657288%)" offset="0.230469"/><stop stop-opacity="1" stop-color="rgb(46.766663%, 46.246338%, 84.541321%)" offset="0.234375"/><stop stop-opacity="1" stop-color="rgb(46.733093%, 46.008301%, 84.425354%)" offset="0.238281"/><stop stop-opacity="1" stop-color="rgb(46.699524%, 45.77179%, 84.309387%)" offset="0.242188"/><stop stop-opacity="1" stop-color="rgb(46.665955%, 45.533752%, 84.191895%)" offset="0.246094"/><stop stop-opacity="1" stop-color="rgb(46.632385%, 45.297241%, 84.075928%)" offset="0.25"/><stop stop-opacity="1" stop-color="rgb(46.598816%, 45.059204%, 83.959961%)" offset="0.253906"/><stop stop-opacity="1" stop-color="rgb(46.565247%, 44.822693%, 83.843994%)" offset="0.257812"/><stop stop-opacity="1" stop-color="rgb(46.531677%, 44.584656%, 83.726501%)" offset="0.261719"/><stop stop-opacity="1" stop-color="rgb(46.498108%, 44.348145%, 83.610535%)" offset="0.265625"/><stop stop-opacity="1" stop-color="rgb(46.464539%, 44.110107%, 83.494568%)" offset="0.269531"/><stop stop-opacity="1" stop-color="rgb(46.430969%, 43.87207%, 83.378601%)" offset="0.273438"/><stop stop-opacity="1" stop-color="rgb(46.3974%, 43.634033%, 83.262634%)" offset="0.277344"/><stop stop-opacity="1" stop-color="rgb(46.365356%, 43.397522%, 83.146667%)" offset="0.28125"/><stop stop-opacity="1" stop-color="rgb(46.331787%, 43.159485%, 83.029175%)" offset="0.285156"/><stop stop-opacity="1" stop-color="rgb(46.298218%, 42.922974%, 82.913208%)" offset="0.289062"/><stop stop-opacity="1" stop-color="rgb(46.264648%, 42.684937%, 82.797241%)" offset="0.292969"/><stop stop-opacity="1" stop-color="rgb(46.231079%, 42.448425%, 82.681274%)" offset="0.296875"/><stop stop-opacity="1" stop-color="rgb(46.19751%, 42.210388%, 82.563782%)" offset="0.300781"/><stop stop-opacity="1" stop-color="rgb(46.16394%, 41.973877%, 82.447815%)" offset="0.304688"/><stop stop-opacity="1" stop-color="rgb(46.130371%, 41.73584%, 82.331848%)" offset="0.308594"/><stop stop-opacity="1" stop-color="rgb(46.096802%, 41.499329%, 82.215881%)" offset="0.3125"/><stop stop-opacity="1" stop-color="rgb(46.063232%, 41.261292%, 82.098389%)" offset="0.316406"/><stop stop-opacity="1" stop-color="rgb(46.029663%, 41.02478%, 81.982422%)" offset="0.320312"/><stop stop-opacity="1" stop-color="rgb(45.996094%, 40.786743%, 81.866455%)" offset="0.324219"/><stop stop-opacity="1" stop-color="rgb(45.962524%, 40.550232%, 81.750488%)" offset="0.328125"/><stop stop-opacity="1" stop-color="rgb(45.928955%, 40.312195%, 81.632996%)" offset="0.332031"/><stop stop-opacity="1" stop-color="rgb(45.895386%, 40.075684%, 81.517029%)" offset="0.335938"/><stop stop-opacity="1" stop-color="rgb(45.861816%, 39.837646%, 81.401062%)" offset="0.339844"/><stop stop-opacity="1" stop-color="rgb(45.829773%, 39.599609%, 81.285095%)" offset="0.34375"/><stop stop-opacity="1" stop-color="rgb(45.796204%, 39.361572%, 81.169128%)" offset="0.347656"/><stop stop-opacity="1" stop-color="rgb(45.762634%, 39.125061%, 81.053162%)" offset="0.351562"/><stop stop-opacity="1" stop-color="rgb(45.729065%, 38.887024%, 80.935669%)" offset="0.355469"/><stop stop-opacity="1" stop-color="rgb(45.695496%, 38.650513%, 80.819702%)" offset="0.359375"/><stop stop-opacity="1" stop-color="rgb(45.661926%, 38.412476%, 80.703735%)" offset="0.363281"/><stop stop-opacity="1" stop-color="rgb(45.628357%, 38.175964%, 80.587769%)" offset="0.367188"/><stop stop-opacity="1" stop-color="rgb(45.594788%, 37.937927%, 80.470276%)" offset="0.371094"/><stop stop-opacity="1" stop-color="rgb(45.561218%, 37.701416%, 80.354309%)" offset="0.375"/><stop stop-opacity="1" stop-color="rgb(45.527649%, 37.463379%, 80.238342%)" offset="0.378906"/><stop stop-opacity="1" stop-color="rgb(45.49408%, 37.226868%, 80.122375%)" offset="0.382812"/><stop stop-opacity="1" stop-color="rgb(45.46051%, 36.988831%, 80.004883%)" offset="0.386719"/><stop stop-opacity="1" stop-color="rgb(45.426941%, 36.752319%, 79.888916%)" offset="0.390625"/><stop stop-opacity="1" stop-color="rgb(45.393372%, 36.514282%, 79.772949%)" offset="0.394531"/><stop stop-opacity="1" stop-color="rgb(45.359802%, 36.277771%, 79.656982%)" offset="0.398438"/><stop stop-opacity="1" stop-color="rgb(45.326233%, 36.039734%, 79.53949%)" offset="0.402344"/><stop stop-opacity="1" stop-color="rgb(45.294189%, 35.803223%, 79.423523%)" offset="0.40625"/><stop stop-opacity="1" stop-color="rgb(45.26062%, 35.565186%, 79.307556%)" offset="0.410156"/><stop stop-opacity="1" stop-color="rgb(45.227051%, 35.327148%, 79.191589%)" offset="0.414062"/><stop stop-opacity="1" stop-color="rgb(45.193481%, 35.089111%, 79.075623%)" offset="0.417969"/><stop stop-opacity="1" stop-color="rgb(45.159912%, 34.8526%, 78.959656%)" offset="0.421875"/><stop stop-opacity="1" stop-color="rgb(45.126343%, 34.614563%, 78.842163%)" offset="0.425781"/><stop stop-opacity="1" stop-color="rgb(45.092773%, 34.378052%, 78.726196%)" offset="0.429688"/><stop stop-opacity="1" stop-color="rgb(45.059204%, 34.140015%, 78.610229%)" offset="0.433594"/><stop stop-opacity="1" stop-color="rgb(45.025635%, 33.903503%, 78.494263%)" offset="0.4375"/><stop stop-opacity="1" stop-color="rgb(44.992065%, 33.665466%, 78.37677%)" offset="0.441406"/><stop stop-opacity="1" stop-color="rgb(44.958496%, 33.428955%, 78.260803%)" offset="0.445312"/><stop stop-opacity="1" stop-color="rgb(44.924927%, 33.190918%, 78.144836%)" offset="0.449219"/><stop stop-opacity="1" stop-color="rgb(44.891357%, 32.954407%, 78.02887%)" offset="0.453125"/><stop stop-opacity="1" stop-color="rgb(44.857788%, 32.71637%, 77.911377%)" offset="0.457031"/><stop stop-opacity="1" stop-color="rgb(44.824219%, 32.479858%, 77.79541%)" offset="0.460938"/><stop stop-opacity="1" stop-color="rgb(44.790649%, 32.241821%, 77.679443%)" offset="0.464844"/><stop stop-opacity="1" stop-color="rgb(44.758606%, 32.00531%, 77.563477%)" offset="0.46875"/><stop stop-opacity="1" stop-color="rgb(44.725037%, 31.767273%, 77.445984%)" offset="0.472656"/><stop stop-opacity="1" stop-color="rgb(44.691467%, 31.530762%, 77.330017%)" offset="0.476562"/><stop stop-opacity="1" stop-color="rgb(44.657898%, 31.292725%, 77.21405%)" offset="0.480469"/><stop stop-opacity="1" stop-color="rgb(44.624329%, 31.054688%, 77.098083%)" offset="0.484375"/><stop stop-opacity="1" stop-color="rgb(44.590759%, 30.81665%, 76.982117%)" offset="0.488281"/><stop stop-opacity="1" stop-color="rgb(44.55719%, 30.580139%, 76.86615%)" offset="0.492188"/><stop stop-opacity="1" stop-color="rgb(44.523621%, 30.342102%, 76.748657%)" offset="0.496094"/><stop stop-opacity="1" stop-color="rgb(44.490051%, 30.105591%, 76.63269%)" offset="0.5"/><stop stop-opacity="1" stop-color="rgb(44.456482%, 29.867554%, 76.516724%)" offset="0.503906"/><stop stop-opacity="1" stop-color="rgb(44.422913%, 29.631042%, 76.400757%)" offset="0.507812"/><stop stop-opacity="1" stop-color="rgb(44.389343%, 29.393005%, 76.283264%)" offset="0.511719"/><stop stop-opacity="1" stop-color="rgb(44.355774%, 29.156494%, 76.167297%)" offset="0.515625"/><stop stop-opacity="1" stop-color="rgb(44.322205%, 28.918457%, 76.051331%)" offset="0.519531"/><stop stop-opacity="1" stop-color="rgb(44.288635%, 28.681946%, 75.935364%)" offset="0.523438"/><stop stop-opacity="1" stop-color="rgb(44.255066%, 28.443909%, 75.817871%)" offset="0.527344"/><stop stop-opacity="1" stop-color="rgb(44.223022%, 28.207397%, 75.701904%)" offset="0.53125"/><stop stop-opacity="1" stop-color="rgb(44.189453%, 27.96936%, 75.585938%)" offset="0.535156"/><stop stop-opacity="1" stop-color="rgb(44.155884%, 27.732849%, 75.469971%)" offset="0.539063"/><stop stop-opacity="1" stop-color="rgb(44.122314%, 27.494812%, 75.352478%)" offset="0.542969"/><stop stop-opacity="1" stop-color="rgb(44.088745%, 27.258301%, 75.236511%)" offset="0.546875"/><stop stop-opacity="1" stop-color="rgb(44.055176%, 27.020264%, 75.120544%)" offset="0.550781"/><stop stop-opacity="1" stop-color="rgb(44.021606%, 26.782227%, 75.004578%)" offset="0.554688"/><stop stop-opacity="1" stop-color="rgb(43.988037%, 26.544189%, 74.888611%)" offset="0.558594"/><stop stop-opacity="1" stop-color="rgb(43.954468%, 26.307678%, 74.772644%)" offset="0.5625"/><stop stop-opacity="1" stop-color="rgb(43.920898%, 26.069641%, 74.655151%)" offset="0.566406"/><stop stop-opacity="1" stop-color="rgb(43.887329%, 25.83313%, 74.539185%)" offset="0.570312"/><stop stop-opacity="1" stop-color="rgb(43.85376%, 25.595093%, 74.423218%)" offset="0.574219"/><stop stop-opacity="1" stop-color="rgb(43.82019%, 25.358582%, 74.307251%)" offset="0.578125"/><stop stop-opacity="1" stop-color="rgb(43.786621%, 25.120544%, 74.189758%)" offset="0.582031"/><stop stop-opacity="1" stop-color="rgb(43.753052%, 24.884033%, 74.073792%)" offset="0.585937"/><stop stop-opacity="1" stop-color="rgb(43.719482%, 24.645996%, 73.957825%)" offset="0.589844"/><stop stop-opacity="1" stop-color="rgb(43.687439%, 24.409485%, 73.841858%)" offset="0.59375"/><stop stop-opacity="1" stop-color="rgb(43.65387%, 24.171448%, 73.724365%)" offset="0.597656"/><stop stop-opacity="1" stop-color="rgb(43.6203%, 23.934937%, 73.608398%)" offset="0.601562"/><stop stop-opacity="1" stop-color="rgb(43.586731%, 23.696899%, 73.492432%)" offset="0.605469"/><stop stop-opacity="1" stop-color="rgb(43.553162%, 23.460388%, 73.376465%)" offset="0.609375"/><stop stop-opacity="1" stop-color="rgb(43.519592%, 23.222351%, 73.260498%)" offset="0.613281"/><stop stop-opacity="1" stop-color="rgb(43.486023%, 22.98584%, 73.144531%)" offset="0.617188"/><stop stop-opacity="1" stop-color="rgb(43.452454%, 22.747803%, 73.027039%)" offset="0.621094"/><stop stop-opacity="1" stop-color="rgb(43.418884%, 22.509766%, 72.911072%)" offset="0.625"/><stop stop-opacity="1" stop-color="rgb(43.385315%, 22.271729%, 72.795105%)" offset="0.628906"/><stop stop-opacity="1" stop-color="rgb(43.351746%, 22.035217%, 72.679138%)" offset="0.632812"/><stop stop-opacity="1" stop-color="rgb(43.318176%, 21.79718%, 72.561646%)" offset="0.636719"/><stop stop-opacity="1" stop-color="rgb(43.284607%, 21.560669%, 72.445679%)" offset="0.640625"/><stop stop-opacity="1" stop-color="rgb(43.251038%, 21.322632%, 72.329712%)" offset="0.644531"/><stop stop-opacity="1" stop-color="rgb(43.217468%, 21.086121%, 72.213745%)" offset="0.648438"/><stop stop-opacity="1" stop-color="rgb(43.183899%, 20.848083%, 72.096252%)" offset="0.652344"/><stop stop-opacity="1" stop-color="rgb(43.151855%, 20.611572%, 71.980286%)" offset="0.65625"/><stop stop-opacity="1" stop-color="rgb(43.118286%, 20.373535%, 71.864319%)" offset="0.660156"/><stop stop-opacity="1" stop-color="rgb(43.084717%, 20.137024%, 71.748352%)" offset="0.664062"/><stop stop-opacity="1" stop-color="rgb(43.051147%, 19.898987%, 71.630859%)" offset="0.667969"/><stop stop-opacity="1" stop-color="rgb(43.017578%, 19.662476%, 71.514893%)" offset="0.671875"/><stop stop-opacity="1" stop-color="rgb(42.984009%, 19.424438%, 71.398926%)" offset="0.675781"/><stop stop-opacity="1" stop-color="rgb(42.950439%, 19.187927%, 71.282959%)" offset="0.679688"/><stop stop-opacity="1" stop-color="rgb(42.91687%, 18.94989%, 71.166992%)" offset="0.683594"/><stop stop-opacity="1" stop-color="rgb(42.883301%, 18.711853%, 71.051025%)" offset="0.6875"/><stop stop-opacity="1" stop-color="rgb(42.849731%, 18.473816%, 70.933533%)" offset="0.691406"/><stop stop-opacity="1" stop-color="rgb(42.816162%, 18.237305%, 70.817566%)" offset="0.695312"/><stop stop-opacity="1" stop-color="rgb(42.782593%, 17.999268%, 70.701599%)" offset="0.699219"/><stop stop-opacity="1" stop-color="rgb(42.749023%, 17.762756%, 70.585632%)" offset="0.703125"/><stop stop-opacity="1" stop-color="rgb(42.715454%, 17.524719%, 70.46814%)" offset="0.707031"/><stop stop-opacity="1" stop-color="rgb(42.681885%, 17.288208%, 70.352173%)" offset="0.710938"/><stop stop-opacity="1" stop-color="rgb(42.648315%, 17.050171%, 70.236206%)" offset="0.714844"/><stop stop-opacity="1" stop-color="rgb(42.616272%, 16.81366%, 70.120239%)" offset="0.71875"/><stop stop-opacity="1" stop-color="rgb(42.582703%, 16.575623%, 70.002747%)" offset="0.722656"/><stop stop-opacity="1" stop-color="rgb(42.549133%, 16.339111%, 69.88678%)" offset="0.726562"/><stop stop-opacity="1" stop-color="rgb(42.515564%, 16.101074%, 69.770813%)" offset="0.730469"/><stop stop-opacity="1" stop-color="rgb(42.481995%, 15.864563%, 69.654846%)" offset="0.734375"/><stop stop-opacity="1" stop-color="rgb(42.448425%, 15.626526%, 69.537354%)" offset="0.738281"/><stop stop-opacity="1" stop-color="rgb(42.414856%, 15.390015%, 69.421387%)" offset="0.742188"/><stop stop-opacity="1" stop-color="rgb(42.381287%, 15.151978%, 69.30542%)" offset="0.746094"/><stop stop-opacity="1" stop-color="rgb(42.347717%, 14.915466%, 69.189453%)" offset="0.75"/><stop stop-opacity="1" stop-color="rgb(42.314148%, 14.677429%, 69.073486%)" offset="0.753906"/><stop stop-opacity="1" stop-color="rgb(42.280579%, 14.439392%, 68.95752%)" offset="0.757812"/><stop stop-opacity="1" stop-color="rgb(42.247009%, 14.201355%, 68.840027%)" offset="0.761719"/><stop stop-opacity="1" stop-color="rgb(42.21344%, 13.964844%, 68.72406%)" offset="0.765625"/><stop stop-opacity="1" stop-color="rgb(42.179871%, 13.726807%, 68.608093%)" offset="0.769531"/><stop stop-opacity="1" stop-color="rgb(42.146301%, 13.490295%, 68.492126%)" offset="0.773438"/><stop stop-opacity="1" stop-color="rgb(42.112732%, 13.252258%, 68.374634%)" offset="0.777344"/><stop stop-opacity="1" stop-color="rgb(42.080688%, 13.015747%, 68.258667%)" offset="0.78125"/><stop stop-opacity="1" stop-color="rgb(42.047119%, 12.77771%, 68.1427%)" offset="0.785156"/><stop stop-opacity="1" stop-color="rgb(42.01355%, 12.541199%, 68.026733%)" offset="0.789062"/><stop stop-opacity="1" stop-color="rgb(41.986084%, 12.350464%, 67.932129%)" offset="0.796875"/><stop stop-opacity="1" stop-color="rgb(41.958618%, 12.159729%, 67.83905%)" offset="0.8125"/><stop stop-opacity="1" stop-color="rgb(41.958618%, 12.159729%, 67.83905%)" offset="0.875"/><stop stop-opacity="1" stop-color="rgb(41.958618%, 12.159729%, 67.83905%)" offset="1"/></linearGradient></defs><rect x="-150" width="1800" fill="#ffffff" y="-149.999993" height="1799.99992" fill-opacity="1"/><rect x="-150" width="1800" fill="#ffffff" y="-149.999993" height="1799.99992" fill-opacity="1"/><g clip-path="url(#4ce2d693fb)"><rect x="-150" fill="url(#e20492f20f)" width="1800" y="-149.999993" height="1799.99992"/></g><path fill="#352359" d="M 651.597656 234.613281 C 654.644531 234.46875 657.691406 234.378906 660.742188 234.351562 L 780.988281 234.335938 L 821.390625 234.328125 C 837.671875 234.328125 853.375 233.753906 869.40625 237.402344 C 930.777344 251.378906 970.136719 303.046875 970.488281 365.457031 L 970.488281 483.769531 L 970.496094 524.816406 C 970.496094 544.402344 971.308594 559.253906 966.324219 578.511719 C 960.519531 600.957031 948.730469 621.40625 932.214844 637.683594 C 911.265625 658.425781 883.777344 671.273438 854.425781 674.039062 C 838.765625 675.621094 811.695312 674.792969 795.167969 674.769531 C 795.515625 688.625 795.214844 703.75 795.214844 717.6875 L 795.273438 803.722656 L 887.320312 867.183594 C 904.347656 878.96875 925.703125 892.835938 941.585938 905.160156 C 942.5625 904.082031 943.550781 903.011719 944.550781 901.945312 C 977.738281 866.710938 1005.703125 837.824219 1058.089844 836.527344 C 1091.996094 835.457031 1124.894531 848.160156 1149.277344 871.75 C 1168.140625 889.773438 1187.789062 910.265625 1206.359375 928.8125 L 1231.660156 954.078125 C 1244.167969 966.5625 1254.734375 976.097656 1263.953125 991.492188 C 1275.65625 1010.789062 1281.925781 1032.886719 1282.097656 1055.453125 C 1283.277344 1124.300781 1231.480469 1157.226562 1188.859375 1202.0625 C 1152.660156 1240.128906 1121.601562 1275.625 1064.519531 1276.539062 C 1030.683594 1277.355469 997.96875 1264.378906 973.890625 1240.59375 C 942.515625 1209.859375 911.910156 1178.117188 880.589844 1147.320312 C 872.648438 1139.515625 865.789062 1131.167969 859.996094 1121.640625 C 848.144531 1102.078125 841.773438 1079.6875 841.554688 1056.8125 C 841.460938 1026.34375 854.101562 992.597656 875.601562 970.800781 C 869.917969 967.484375 861.996094 961.742188 856.398438 957.867188 L 824.941406 936.058594 C 821.015625 933.5625 816.664062 930.511719 812.898438 927.769531 C 792.203125 912.703125 769.648438 898.988281 749.308594 883.574219 C 742.054688 889.054688 732.492188 895.328125 724.890625 900.585938 L 678.917969 932.355469 C 669.917969 938.527344 660.949219 944.753906 652.019531 951.03125 C 647.128906 954.40625 640.726562 959.046875 635.621094 961.730469 C 647.011719 982.703125 654.925781 1012.355469 657.464844 1035.859375 C 663.691406 1093.644531 647.101562 1150.804688 611.382812 1196.300781 C 575.054688 1242.171875 521.980469 1271.714844 463.855469 1278.421875 C 405.742188 1285.105469 347.355469 1268.46875 301.492188 1232.160156 C 255.664062 1195.78125 226.175781 1142.679688 219.523438 1084.542969 C 212.957031 1026.664062 229.574219 968.542969 265.738281 922.878906 C 302.417969 876.636719 356.121094 847.046875 414.804688 840.746094 C 475.175781 834.136719 531.804688 852.277344 578.757812 889.980469 C 589.539062 881.609375 602.484375 873.03125 613.804688 865.199219 L 672.027344 824.910156 C 682.25 817.84375 693.421875 810.507812 703.335938 803.183594 C 702.242188 773.625 703.800781 743.019531 703.164062 713.355469 C 702.894531 700.9375 702.8125 687.113281 703.269531 674.742188 C 653.605469 674.671875 615.964844 679.152344 574.660156 643.59375 C 548.804688 621.292969 532.828125 589.671875 530.222656 555.632812 C 529.375 544.195312 529.761719 528.984375 529.773438 517.257812 L 529.777344 454.707031 L 529.757812 393.171875 C 529.757812 374.78125 528.792969 354.382812 532.667969 336.574219 C 537.222656 315.054688 547.148438 295.039062 561.523438 278.386719 C 584.714844 251.675781 616.527344 236.992188 651.597656 234.613281 Z M 651.597656 234.613281 " fill-opacity="1" fill-rule="nonzero"/><path fill="#b292fb" d="M 659.132812 326.472656 C 673.382812 326.085938 688.65625 326.34375 702.976562 326.347656 L 780.0625 326.351562 L 821.1875 326.320312 C 836.890625 326.3125 853.527344 324.28125 866.109375 335.789062 C 874.707031 343.65625 877.964844 352.550781 878.246094 364.136719 C 878.570312 377.550781 878.410156 391.007812 878.390625 404.453125 L 878.402344 476.199219 L 878.417969 524.03125 C 878.417969 528.304688 878.101562 533.8125 878.40625 537.933594 C 880.191406 562.292969 867.25 581.71875 841.242188 582.695312 C 826.003906 583.363281 808.492188 582.785156 793.113281 582.675781 L 725.933594 582.601562 L 678.714844 582.902344 C 658.472656 582.9375 639.421875 584.914062 627.4375 565.058594 C 623.75 558.949219 622.601562 554.433594 622.363281 547.246094 C 621.90625 533.472656 622.09375 519.691406 622.085938 505.90625 L 622.078125 430.957031 L 622.089844 383.761719 C 622.101562 363.449219 619.578125 343.648438 640.019531 331.710938 C 646.640625 327.84375 651.566406 326.914062 659.132812 326.472656 Z M 659.132812 326.472656 " fill-opacity="1" fill-rule="nonzero"/><path fill="#5ef3e8" d="M 429.742188 931.996094 C 500.433594 927.195312 561.582031 980.726562 566.171875 1051.433594 C 570.757812 1122.140625 517.046875 1183.128906 446.328125 1187.507812 C 375.902344 1191.867188 315.226562 1138.429688 310.65625 1068.019531 C 306.085938 997.609375 359.34375 936.777344 429.742188 931.996094 Z M 429.742188 931.996094 " fill-opacity="1" fill-rule="nonzero"/><path fill="#89a2e8" d="M 1058.976562 928.664062 C 1078.546875 927.105469 1089.636719 942.222656 1102.238281 954.828125 L 1134.878906 987.488281 L 1165.496094 1018.082031 C 1171.363281 1023.949219 1177.816406 1030.007812 1183.007812 1036.417969 C 1191.632812 1047.09375 1192.328125 1064.914062 1183.6875 1075.730469 C 1178.023438 1082.820312 1170.984375 1089.261719 1164.535156 1095.683594 L 1132.117188 1128.019531 L 1100.339844 1160.210938 C 1089.109375 1171.496094 1081.128906 1182.300781 1064.546875 1184.570312 C 1056.636719 1185.09375 1048.789062 1182.835938 1042.367188 1178.1875 C 1038.265625 1175.269531 1029.265625 1165.878906 1025.40625 1162.019531 L 994.296875 1130.890625 L 959.835938 1096.445312 C 953.652344 1090.261719 946.644531 1083.640625 941.050781 1077.046875 C 932.535156 1067 931.476562 1049.03125 939.460938 1038.445312 C 945.367188 1030.617188 953.542969 1023.0625 960.601562 1016.003906 L 993.917969 982.699219 L 1023.792969 952.832031 C 1035.207031 941.414062 1042.289062 931.253906 1058.976562 928.664062 Z M 1058.976562 928.664062 " fill-opacity="1" fill-rule="nonzero"/></svg>