<?xml version="1.0" encoding="utf-8" ?><svg xmlns="http://www.w3.org/2000/svg" xmlns:xlink="http://www.w3.org/1999/xlink" width="2000" height="2000" viewBox="0 0 2000 2000"><defs><linearGradient id="gradient_0" gradientUnits="userSpaceOnUse" x1="1952.6256" y1="320.69168" x2="45.636703" y2="1678.0292"><stop offset="0" stop-color="#690BD8"/><stop offset="1" stop-color="#7B96F2"/></linearGradient></defs><path fill="url(#gradient_0)" d="M511.599 9.22356C514.098 8.91329 518.823 8.82903 521.401 8.79761C544.695 8.51375 568.063 8.67627 591.362 8.67624L723.98 8.66864L1122.07 8.64096L1353.8 8.6102C1426.69 8.60427 1499.63 4.54847 1570.88 20.2858C1666.36 40.9673 1754.29 87.5371 1825.05 154.89C1929.09 253.744 1989.56 391.763 1991.01 535.386C1991.68 601.655 1991.16 668.107 1991.16 734.398L1991.14 1120.14L1991.16 1350.89C1991.18 1430.39 1995.6 1500.73 1977.51 1578.76C1955.78 1672.22 1909.18 1758.07 1842.63 1827.2C1762.22 1911.12 1656.58 1966.45 1541.8 1984.75C1524.37 1987.44 1504.67 1989.99 1487.06 1990.4C1486.3 1990.47 1485.54 1990.53 1484.77 1990.58C1466.84 1991.78 1442.31 1991.1 1423.97 1991.1L1319.47 1991.11L990.648 1991.09L676.487 1991.09L579.128 1991.09C525.811 1991.1 488.217 1991.8 434.993 1980.79C344.107 1962.2 259.625 1920.28 189.855 1859.14C83.6134 1765.88 18.771 1634.24 9.59392 1493.17C8.12943 1470.2 8.69759 1444.87 8.69821 1421.66L8.72952 1311.23L8.74494 967.149L8.74591 669.88L8.68837 576.185C8.59377 518.938 7.40695 488.492 19.4857 431.249C38.4191 341.661 80.1699 258.482 140.693 189.77C235.038 82.1838 368.723 17.1097 511.599 9.22356Z"/><path fill="#362459" d="M878.729 320.751L1043.28 320.755C1074.28 320.736 1131.13 318.723 1158.97 325.157C1189.39 332.287 1217.29 347.561 1239.69 369.343C1275.93 405.122 1290.11 450.461 1290.21 500.465L1290.19 648.198C1290.24 682.874 1292.83 742.328 1284.77 773.823C1277.11 803.426 1261.59 830.406 1239.85 851.904C1184.33 907.186 1129.08 900.689 1059.44 900.693L1059.54 1070.74L1177.4 1151.93C1201.02 1168.1 1229.98 1186.8 1252.2 1204.38L1254.4 1201.98C1297.55 1154.91 1337.01 1116.34 1404.37 1114C1448.73 1111.78 1493.61 1129.23 1525.61 1160.1C1561.18 1194.43 1595.75 1231 1631.23 1265.62C1647.78 1281.78 1664.66 1298.15 1676.75 1318.14C1691.48 1342.34 1699.64 1369.95 1700.42 1398.27C1703.33 1488.04 1642.83 1529.01 1586.68 1585.97C1534.79 1638.61 1496.73 1690.86 1415.07 1693.28C1370.98 1694.6 1328.22 1678.1 1296.45 1647.51C1254.23 1607.56 1214.36 1564.13 1172.49 1523.73C1161.67 1513.29 1151.26 1500.04 1143.61 1487.11C1129.18 1462.67 1121.27 1434.94 1120.63 1406.57C1119.88 1363.62 1135.94 1322.09 1165.4 1290.84C1141.82 1276 1115.71 1256.73 1092.3 1240.7C1061.65 1218.65 1029.05 1198.12 999.065 1175.72C961.667 1203.15 921.714 1228.34 884.038 1255.48C872.9 1263.5 861.125 1271.83 849.364 1278.84C863.443 1305.74 872.733 1338.47 876.947 1368.69C887.36 1444.91 867.092 1522.14 820.594 1583.43C774.304 1644.15 705.952 1684.2 630.346 1694.88C552.991 1705.75 474.514 1685.08 412.549 1637.52C351.041 1590.08 311.098 1519.98 301.644 1442.88C292.224 1366.38 313.721 1289.28 361.365 1228.68C409.051 1167.97 479.004 1128.81 555.689 1119.9C637.344 1109.98 710.458 1134.36 774.391 1184.44C791.118 1171.46 810.578 1158.6 828.131 1146.42L938.525 1070.06C937.428 1029.83 938.823 989.815 938.253 949.595C938.022 933.254 938.025 917.041 938.453 900.703C873.132 900.08 823.601 907.184 768.484 859.309C733.381 828.819 713.245 787.084 710.353 740.736C709.456 726.353 709.85 710.205 709.873 695.663L709.982 618.576L709.867 536.154C709.824 508.386 708.443 478.146 714.708 451.196C721.146 424.123 734.084 399.027 752.403 378.081C786.474 339.289 828.423 323.928 878.729 320.751Z"/><path fill="#A398F4" d="M1094.82 441.928C1095.83 441.869 1096.84 441.822 1097.85 441.787C1117.66 441.163 1139.32 441.058 1154.36 455.881C1166.24 467.596 1168.88 480.907 1168.93 496.776C1169.12 551.136 1169.05 605.581 1169.04 659.929L1169.02 708.617C1169.02 718.098 1169.89 730.682 1168 739.649C1161.49 770.419 1140.83 779.232 1112.66 779.717C1091.49 780.081 1071.69 779.519 1051.16 779.463L903.076 779.749C865.053 780.903 832.123 774.212 831.719 728.006C831.27 676.539 830.826 624.561 831.37 573.12C831.651 546.572 828.76 504.951 833.044 479.969C834.533 471.154 838.69 463.007 844.953 456.627C861.506 439.64 885.516 442.229 907.172 442.007C919.529 441.88 931.936 442.005 944.299 442.007L1094.82 441.928Z"/><path fill="#5CF3E6" d="M574.697 1239.83C667.363 1231.63 749.169 1300.01 757.522 1392.67C765.875 1485.32 697.619 1567.23 604.98 1575.74C512.132 1584.25 429.992 1515.81 421.62 1422.95C413.248 1330.09 481.823 1248.06 574.697 1239.83Z"/><path fill="#A398F4" d="M1404.17 1235.54C1429.9 1233.91 1439.68 1244.99 1456.6 1262.22C1489.23 1295.45 1522.45 1328.15 1555.32 1361.13C1564.01 1370.55 1573.47 1378.17 1577.11 1390.98C1582.28 1409.14 1576.95 1423.68 1564.26 1436.9C1543.8 1458.2 1522.21 1478.31 1501.5 1499.33L1464.61 1537.05C1448.96 1553.06 1439.42 1565.54 1417.16 1572.06C1403.14 1572.64 1391.37 1570.39 1380.77 1560.17C1345.9 1526.39 1311.89 1491.61 1277.35 1457.46C1265.9 1446.15 1250.06 1432.81 1244.59 1417.71C1238.02 1399.61 1244.97 1383.13 1257.68 1370.03C1289.11 1337.86 1321.5 1306.59 1352.97 1274.43C1369.83 1257.2 1380.37 1242.62 1404.17 1235.54Z"/></svg>